# xmcd CD database file
# Copyright (C) 1993-1998 Ti Kan
# 
# Track frame offsets:
#     182
#     6452
#     29140
#     54290
#     77465
#     100690
#     133892
#     159747
#     176552
#     202650
#     226262
# 
# Disc length: 3093 seconds
# 
# Revision: 1
# Processed by: cddbd v1.4b41PL1 Copyright (c) Steve Scherf et al.
# Submitted via: DiscPlay 4.0.4
# 
DISCID=850c130b
DTITLE=Entouch - Entouch
DYEAR=1900
DGENRE=
TTITLE0=Enaprayer
TTITLE1=Don't It Feel Good
TTITLE2=Mary Sweet
TTITLE3=E.T. Is In Tha House 2 Nite
TTITLE4=Til Eternity
TTITLE5=En Luv We Trust
TTITLE6=Kickem 2 Tha Curb
TTITLE7=Not B Cauz Of U
TTITLE8=Drop Dead Gorgeous
TTITLE9=She Used 2 B My Girl
TTITLE10=Enablues
EXTD=
EXTT0=
EXTT1=
EXTT2=
EXTT3=
EXTT4=
EXTT5=
EXTT6=
EXTT7=
EXTT8=
EXTT9=
EXTT10=
PLAYORDER=
